<?xml version="1.0" standalone="no"?>
<!DOCTYPE svg PUBLIC "-//W3C//DTD SVG 20010904//EN"
 "http://www.w3.org/TR/2001/REC-SVG-20010904/DTD/svg10.dtd">
<svg version="1.0" xmlns="http://www.w3.org/2000/svg"
 width="656.000000pt" height="656.000000pt" viewBox="0 0 656.000000 656.000000"
 preserveAspectRatio="xMidYMid meet">
<metadata>
Created by potrace 1.14, written by Peter Selinger 2001-2017
</metadata>
<g transform="translate(0.000000,656.000000) scale(0.100000,-0.100000)"
fill="#000000" stroke="none">
<path d="M3170 5789 c-17 -30 -96 -157 -176 -284 -80 -126 -149 -240 -154
-252 -5 -13 -14 -23 -19 -23 -5 0 -11 -8 -14 -17 -4 -10 -16 -35 -29 -55 -22
-35 -96 -153 -128 -203 -8 -13 -53 -85 -100 -160 -47 -75 -104 -166 -128 -203
-23 -37 -45 -74 -49 -82 -4 -8 -9 -17 -13 -20 -3 -3 -37 -54 -74 -115 -37 -60
-139 -225 -227 -365 -88 -140 -176 -282 -196 -315 -19 -33 -38 -62 -42 -65 -4
-3 -11 -12 -14 -20 -8 -16 -36 -61 -337 -540 -107 -170 -199 -319 -205 -330
-5 -11 -13 -20 -17 -20 -5 0 -8 -5 -8 -11 0 -7 -19 -42 -43 -78 -24 -36 -52
-82 -63 -100 -10 -19 -26 -43 -34 -53 -8 -10 -24 -34 -35 -53 -58 -98 -111
-180 -117 -183 -5 -2 -8 -8 -8 -14 0 -5 -13 -28 -28 -51 -16 -23 -32 -49 -35
-57 -8 -18 -112 -180 -127 -197 -5 -7 -10 -15 -10 -18 0 -3 -8 -18 -19 -33
-45 -65 -261 -415 -261 -423 0 -5 -4 -9 -10 -9 -5 0 -10 -4 -10 -9 0 -4 -81
-138 -180 -296 -99 -158 -180 -289 -180 -292 0 -2 -9 -13 -20 -25 -11 -12 -20
-28 -20 -35 0 -7 -5 -13 -12 -13 -6 0 -9 -3 -5 -6 3 -4 -1 -14 -10 -23 -15
-15 107 -16 1626 -19 903 -1 2378 -1 3277 0 l1634 3 -49 75 c-28 41 -55 80
-60 87 -6 7 -11 15 -11 17 0 3 -54 87 -120 187 -66 99 -120 184 -120 188 0 5
-9 16 -20 26 -11 10 -20 22 -20 27 0 5 -5 14 -10 21 -6 7 -30 41 -53 77 -23
36 -71 110 -107 165 -36 55 -69 107 -75 116 -37 60 -112 173 -121 183 -6 6
-13 16 -15 21 -2 6 -15 28 -29 50 -28 45 -27 40 -35 160 -3 49 -8 119 -11 155
-3 36 -7 88 -9 115 -2 28 -6 95 -10 150 -4 55 -7 108 -7 118 1 15 -7 20 -28
19 -22 0 -280 -22 -323 -27 -26 -3 -35 7 -127 148 -54 84 -103 157 -109 164
-6 7 -11 15 -11 17 0 3 -29 49 -65 102 -36 53 -65 98 -65 100 0 2 -20 33 -45
70 -25 36 -45 70 -45 75 0 5 -7 12 -15 15 -8 3 -17 15 -21 27 -8 24 -45 80
-56 85 -5 2 -8 8 -8 13 0 10 -62 103 -72 107 -5 2 -8 8 -8 12 0 5 -57 96 -127
202 -69 106 -164 250 -210 321 -45 70 -122 187 -170 260 -49 72 -90 137 -93
142 -3 6 -30 48 -61 95 -31 47 -98 148 -148 225 -50 77 -96 147 -101 155 -143
217 -250 382 -265 408 -11 17 -22 32 -26 32 -4 0 -9 8 -13 18 -5 17 -26 53
-36 62 -3 3 -34 50 -69 105 -35 55 -68 102 -72 103 -5 2 -9 8 -9 13 0 5 -15
33 -34 61 l-34 50 -32 -53z"/>
</g>
</svg>
